<svg width="184" height="144" viewBox="0 0 184 144" fill="none" xmlns="http://www.w3.org/2000/svg">
<rect width="184" height="144" rx="30" fill="#89FC77"/>
<path d="M80 74L88 82L104 66M128 74C128 78.7276 127.069 83.4088 125.26 87.7768C123.45 92.1444 120.799 96.1128 117.456 99.456C114.113 102.799 110.144 105.45 105.777 107.26C101.409 109.069 96.7276 110 92 110C87.2724 110 82.5911 109.069 78.2234 107.26C73.8557 105.45 69.8871 102.799 66.5442 99.456C63.2012 96.1128 60.5495 92.1444 58.7403 87.7768C56.9312 83.4088 56 78.7276 56 74C56 64.4522 59.7928 55.2955 66.5442 48.5442C73.2955 41.7928 82.4522 38 92 38C101.548 38 110.704 41.7928 117.456 48.5442C124.207 55.2955 128 64.4522 128 74Z" stroke="white" stroke-width="8" stroke-linecap="round" stroke-linejoin="round"/>
</svg>
