<svg width="30" height="30" viewBox="0 0 30 30" fill="none" xmlns="http://www.w3.org/2000/svg">
<path d="M13.75 6.24996H7.5C6.83696 6.24996 6.20108 6.51335 5.73224 6.9822C5.26339 7.45103 5 8.08692 5 8.74996V22.4999C5 23.1629 5.26339 23.7988 5.73224 24.2677C6.20108 24.7366 6.83696 24.9999 7.5 24.9999H21.25C21.913 24.9999 22.5489 24.7366 23.0177 24.2677C23.4866 23.7988 23.75 23.1629 23.75 22.4999V16.2499M21.9825 4.48246C22.2131 4.24368 22.489 4.05322 22.794 3.92221C23.099 3.79118 23.427 3.72222 23.759 3.71933C24.091 3.71645 24.4201 3.7797 24.7274 3.90541C25.0346 4.03111 25.3138 4.21673 25.5485 4.45147C25.7833 4.68621 25.9689 4.96533 26.0945 5.27257C26.2203 5.57981 26.2835 5.90901 26.2806 6.24096C26.2777 6.57291 26.2087 6.90096 26.0777 7.20597C25.9467 7.51098 25.7562 7.78685 25.5175 8.01746L14.785 18.7499H11.25V15.2149L21.9825 4.48246Z" stroke="white" stroke-width="2" stroke-linecap="round" stroke-linejoin="round"/>
</svg>
