<svg width="40" height="40" viewBox="0 0 40 40" fill="none" xmlns="http://www.w3.org/2000/svg">
<path d="M15 21.6667H25H15ZM20 16.6667V26.6667V16.6667ZM28.3333 35H11.6667C10.7826 35 9.93477 34.6488 9.30965 34.0237C8.68452 33.3985 8.33333 32.5507 8.33333 31.6667V8.33333C8.33333 7.44928 8.68452 6.60143 9.30965 5.97632C9.93477 5.35118 10.7826 5 11.6667 5H20.9767C21.4187 5.0001 21.8425 5.17575 22.155 5.48833L31.1783 14.5117C31.491 14.8241 31.6665 15.248 31.6667 15.69V31.6667C31.6667 32.5507 31.3155 33.3985 30.6903 34.0237C30.0652 34.6488 29.2173 35 28.3333 35Z" stroke="white" stroke-width="2" stroke-linecap="round" stroke-linejoin="round"/>
</svg>
