<svg width="32" height="36" viewBox="0 0 32 36" fill="none" xmlns="http://www.w3.org/2000/svg">
<path d="M12.2093 24.1818H12.222M12.2093 8.1818H9.66667C8.99232 8.1818 8.34559 8.48828 7.86876 9.03385C7.39191 9.57941 7.12403 10.3194 7.12403 11.0909V28.5454C7.12403 29.3169 7.39191 30.0569 7.86876 30.6025C8.34559 31.1481 8.99232 31.4545 9.66667 31.4545H22.3798C23.0542 31.4545 23.7009 31.1481 24.1777 30.6025C24.6546 30.0569 24.9225 29.3169 24.9225 28.5454V11.0909C24.9225 10.3194 24.6546 9.57941 24.1777 9.03385C23.7009 8.48828 23.0542 8.1818 22.3798 8.1818H19.8372H12.2093ZM12.2093 8.1818C12.2093 8.95333 12.4772 9.69327 12.954 10.2388C13.4309 10.7844 14.0776 11.0909 14.7519 11.0909H17.2946C17.9689 11.0909 18.6156 10.7844 19.0925 10.2388C19.5693 9.69327 19.8372 8.95333 19.8372 8.1818H12.2093ZM12.2093 8.1818C12.2093 7.41026 12.4772 6.67032 12.954 6.12476C13.4309 5.57919 14.0776 5.27271 14.7519 5.27271H17.2946C17.9689 5.27271 18.6156 5.57919 19.0925 6.12476C19.5693 6.67032 19.8372 7.41026 19.8372 8.1818H12.2093ZM16.0233 18.3636H19.8372H16.0233ZM16.0233 24.1818H19.8372H16.0233ZM12.2093 18.3636H12.222H12.2093Z" stroke="white" stroke-width="2" stroke-linecap="round" stroke-linejoin="round"/>
</svg>
