<svg width="26" height="26" viewBox="0 0 26 26" fill="none" xmlns="http://www.w3.org/2000/svg">
<path d="M1 1H3.66667L4.2 3.66667L1 1ZM4.2 3.66667H25L19.6667 14.3333H6.33333L4.2 3.66667ZM4.2 3.66667L6.33333 14.3333L4.2 3.66667ZM6.33333 14.3333L3.276 17.3907C2.436 18.2307 3.03067 19.6667 4.21867 19.6667H19.6667L6.33333 14.3333ZM19.6667 19.6667C18.9595 19.6667 18.2812 19.9476 17.7811 20.4477C17.2809 20.9479 17 21.6261 17 22.3333C17 23.0405 17.2809 23.7188 17.7811 24.2189C18.2812 24.7191 18.9595 25 19.6667 25C20.3739 25 21.0521 24.7191 21.5523 24.2189C22.0524 23.7188 22.3333 23.0405 22.3333 22.3333C22.3333 21.6261 22.0524 20.9479 21.5523 20.4477C21.0521 19.9476 20.3739 19.6667 19.6667 19.6667ZM9 22.3333C9 23.0405 8.71905 23.7188 8.21895 24.2189C7.71885 24.7191 7.04057 25 6.33333 25C5.62609 25 4.94781 24.7191 4.44772 24.2189C3.94761 23.7188 3.66667 23.0405 3.66667 22.3333C3.66667 21.6261 3.94761 20.9479 4.44772 20.4477C4.94781 19.9476 5.62609 19.6667 6.33333 19.6667C7.04057 19.6667 7.71885 19.9476 8.21895 20.4477C8.71905 20.9479 9 21.6261 9 22.3333Z" stroke="white" stroke-width="2" stroke-linecap="round" stroke-linejoin="round"/>
</svg>
