<svg width="35" height="35" viewBox="0 0 35 35" fill="none" xmlns="http://www.w3.org/2000/svg">
<path d="M14.5833 16.0417V24.7917V16.0417ZM20.4167 16.0417V24.7917V16.0417ZM5.83333 10.2083H29.1667H5.83333ZM27.7083 10.2083L26.444 27.9154C26.3916 28.6513 26.0623 29.3399 25.5224 29.8428C24.9826 30.3454 24.2724 30.625 23.5346 30.625H11.4654C10.7277 30.625 10.0174 30.3454 9.47755 29.8428C8.93769 29.3399 8.60843 28.6513 8.55604 27.9154L7.29167 10.2083H27.7083ZM21.875 10.2083V5.83333C21.875 5.44655 21.7213 5.07563 21.4479 4.80213C21.1744 4.52865 20.8034 4.375 20.4167 4.375H14.5833C14.1966 4.375 13.8256 4.52865 13.5521 4.80213C13.2786 5.07563 13.125 5.44655 13.125 5.83333V10.2083H21.875Z" stroke="white" stroke-width="2" stroke-linecap="round" stroke-linejoin="round"/>
</svg>
