<svg width="21" height="21" viewBox="0 0 21 21" fill="none" xmlns="http://www.w3.org/2000/svg">
<path d="M7.36243 16.1124C7.69063 15.7842 7.875 15.3391 7.875 14.875C7.875 14.4109 7.69063 13.9658 7.36243 13.6376C7.03425 13.3094 6.58913 13.125 6.125 13.125C5.66087 13.125 5.21575 13.3094 4.88757 13.6376C4.55937 13.9658 4.375 14.4109 4.375 14.875C4.375 15.3391 4.55937 15.7842 4.88757 16.1124C5.21575 16.4406 5.66087 16.625 6.125 16.625C6.58913 16.625 7.03425 16.4406 7.36243 16.1124Z" stroke="white"/>
<path d="M16.1124 16.1124C16.4406 15.7842 16.625 15.3391 16.625 14.875C16.625 14.4109 16.4406 13.9658 16.1124 13.6376C15.7842 13.3094 15.3391 13.125 14.875 13.125C14.4109 13.125 13.9658 13.3094 13.6376 13.6376C13.3094 13.9658 13.125 14.4109 13.125 14.875C13.125 15.3391 13.3094 15.7842 13.6376 16.1124C13.9658 16.4406 14.4109 16.625 14.875 16.625C15.3391 16.625 15.7842 16.4406 16.1124 16.1124Z" stroke="white"/>
<path d="M16.625 14.875C16.625 14.4109 16.4406 13.9658 16.1124 13.6376C15.7842 13.3094 15.3391 13.125 14.875 13.125C14.4109 13.125 13.9658 13.3094 13.6376 13.6376C13.3094 13.9658 13.125 14.4109 13.125 14.875M11.375 14V5.25C11.375 5.01793 11.2828 4.79538 11.1187 4.63128C10.9546 4.46719 10.732 4.375 10.5 4.375H3.5C3.26793 4.375 3.04538 4.46719 2.88128 4.63128C2.71719 4.79538 2.625 5.01793 2.625 5.25V14C2.625 14.232 2.71719 14.4546 2.88128 14.6187C3.04538 14.7828 3.26793 14.875 3.5 14.875H4.375L11.375 14ZM11.375 14C11.375 14.232 11.2828 14.4546 11.1187 14.6187C10.9546 14.7828 10.732 14.875 10.5 14.875H7.875L11.375 14ZM11.375 14V7C11.375 6.76793 11.4672 6.54538 11.6313 6.38128C11.7954 6.21719 12.018 6.125 12.25 6.125H14.5128C14.7448 6.12505 14.9673 6.21727 15.1314 6.38138L18.1186 9.36862C18.2828 9.53269 18.3749 9.7552 18.375 9.98725V14C18.375 14.232 18.2828 14.4546 18.1187 14.6187C17.9546 14.7828 17.732 14.875 17.5 14.875H16.625L11.375 14ZM11.375 14C11.375 14.232 11.4672 14.4546 11.6313 14.6187C11.7954 14.7828 12.018 14.875 12.25 14.875H13.125L11.375 14ZM4.375 14.875C4.375 15.3391 4.55937 15.7842 4.88757 16.1124C5.21575 16.4406 5.66087 16.625 6.125 16.625C6.58913 16.625 7.03425 16.4406 7.36243 16.1124C7.69063 15.7842 7.875 15.3391 7.875 14.875H4.375ZM4.375 14.875C4.375 14.4109 4.55937 13.9658 4.88757 13.6376C5.21575 13.3094 5.66087 13.125 6.125 13.125C6.58913 13.125 7.03425 13.3094 7.36243 13.6376C7.69063 13.9658 7.875 14.4109 7.875 14.875H4.375ZM16.625 14.875C16.625 15.3391 16.4406 15.7842 16.1124 16.1124C15.7842 16.4406 15.3391 16.625 14.875 16.625C14.4109 16.625 13.9658 16.4406 13.6376 16.1124C13.3094 15.7842 13.125 15.3391 13.125 14.875H16.625Z" stroke="white" stroke-linecap="round" stroke-linejoin="round"/>
</svg>
